<?xml version="1.0" standalone="no"?>
<!DOCTYPE svg PUBLIC "-//W3C//DTD SVG 20010904//EN"
 "http://www.w3.org/TR/2001/REC-SVG-20010904/DTD/svg10.dtd">
<svg version="1.0" xmlns="http://www.w3.org/2000/svg"
 width="1707.000000pt" height="1707.000000pt" viewBox="0 0 1707.000000 1707.000000"
 preserveAspectRatio="xMidYMid meet">
<metadata>
Created by potrace 1.14, written by Peter Selinger 2001-2017
</metadata>
<g transform="translate(0.000000,1707.000000) scale(0.100000,-0.100000)"
fill="#000000" stroke="none">
<path d="M1228 14045 c-2 -2 -28 -5 -58 -8 -324 -31 -667 -216 -869 -467 -20
-25 -38 -47 -41 -50 -20 -19 -97 -152 -139 -240 -83 -176 -95 -232 -96 -460 0
-228 6 -261 81 -440 l52 -125 -38 -41 c-79 -86 -114 -192 -114 -344 0 -213 58
-376 223 -630 224 -346 309 -440 508 -554 117 -69 170 -82 324 -84 l130 -2
181 110 181 110 50 -47 c27 -26 62 -58 77 -72 98 -93 342 -325 375 -356 22
-20 107 -101 189 -178 205 -195 433 -412 561 -532 17 -16 77 -73 131 -125 114
-108 402 -382 484 -460 142 -135 508 -490 579 -563 43 -45 111 -122 149 -172
233 -302 519 -505 883 -628 73 -25 230 -65 284 -72 28 -4 59 -10 70 -12 39 -9
411 -10 485 -2 286 34 609 150 855 307 128 82 217 156 346 287 142 146 243
281 332 445 25 47 52 86 60 88 8 2 34 -10 58 -26 24 -16 132 -85 239 -152 107
-68 218 -137 245 -155 128 -82 445 -275 454 -275 36 0 2 -115 -82 -273 -30
-56 -114 -205 -186 -332 -343 -597 -397 -773 -310 -1013 76 -208 209 -353 398
-433 85 -35 108 -40 211 -43 364 -12 668 301 668 687 0 195 -45 299 -331 759
-144 233 -212 359 -272 512 -43 108 -46 120 -30 128 16 9 15 11 -2 27 -43 39
-168 126 -643 446 -337 228 -365 249 -365 271 -1 10 8 46 18 79 52 169 71 262
84 400 11 130 6 366 -12 495 -20 147 -87 343 -179 523 -66 129 -65 127 -117
207 -37 57 -83 143 -92 171 -3 8 -44 42 -92 75 -116 78 -127 86 -147 106 -31
31 -161 123 -233 165 -124 72 -276 136 -445 188 -41 12 -104 35 -140 50 -68
29 -442 214 -639 317 -299 156 -572 297 -916 473 -115 59 -255 131 -310 160
-55 29 -185 96 -290 150 -104 54 -224 116 -266 139 l-77 41 -23 79 c-61 212
-300 596 -489 786 -108 109 -198 169 -323 214 -177 64 -309 49 -480 -54 l-82
-50 -29 32 c-123 141 -194 204 -312 275 -121 73 -288 134 -439 159 -38 6 -252
13 -257 9z"/>
<path d="M15587 13004 c-1 -1 -49 -5 -107 -8 -58 -4 -121 -9 -140 -11 -19 -2
-60 -6 -90 -9 -30 -3 -82 -8 -115 -12 -33 -3 -67 -7 -75 -9 -8 -2 -51 -7 -95
-11 -44 -3 -82 -8 -85 -9 -3 -2 -33 -6 -65 -10 -58 -6 -88 -11 -130 -19 -11
-2 -42 -7 -70 -10 -68 -10 -85 -15 -85 -29 0 -7 38 -64 83 -128 l84 -116 3
-204 c5 -280 5 -7354 -1 -7969 -4 -508 -1 -577 31 -715 70 -300 283 -514 635
-635 44 -15 85 -28 90 -28 6 -1 30 -6 55 -12 168 -39 518 -48 630 -15 8 2 30
7 48 10 211 36 459 227 566 434 35 70 64 139 71 171 1 3 7 23 13 45 9 31 13
1055 16 4385 1 2390 6 4368 10 4395 9 59 63 164 145 280 l60 84 -32 10 c-144
46 -543 115 -717 126 -203 12 -725 26 -733 19z m753 -37 c19 -3 58 -8 85 -11
177 -19 576 -95 597 -115 4 -3 -22 -51 -58 -106 -36 -55 -80 -127 -96 -160
l-31 -60 -3 -3870 c-3 -3604 -7 -4773 -18 -4902 -12 -141 -98 -310 -223 -440
-69 -71 -153 -131 -246 -172 -57 -26 -87 -36 -162 -57 -5 -2 -23 -6 -40 -9
-16 -3 -41 -8 -55 -11 -45 -11 -324 -13 -395 -3 -127 16 -171 25 -265 51 -183
50 -344 136 -458 242 -119 111 -219 297 -237 442 -4 27 -8 1892 -10 4144 -3
4244 -6 4684 -26 4722 -7 12 -35 54 -64 93 -54 73 -79 114 -73 120 4 4 54 14
107 21 19 2 46 6 60 9 51 8 249 33 406 50 105 12 134 14 215 21 47 3 87 8 89
10 7 6 860 -3 901 -9z"/>
<path d="M15270 12689 c-19 -4 -53 -10 -75 -13 -52 -7 -268 -53 -320 -68 -22
-6 -43 -12 -47 -12 -3 -1 -9 -4 -13 -8 -10 -9 36 -3 120 17 93 22 212 46 255
51 19 3 44 7 55 9 22 6 190 13 418 19 82 2 151 7 155 11 9 9 -504 4 -548 -6z"/>
<path d="M15146 10213 c-3 -3 -197 -15 -276 -17 l-65 -1 2 -1410 c2 -776 5
-2033 8 -2795 9 -2146 8 -2111 57 -2290 39 -143 99 -246 210 -358 120 -121
273 -191 458 -210 134 -14 405 -7 520 14 14 2 43 7 65 10 55 8 206 59 268 90
124 63 224 162 281 279 53 107 64 170 67 388 4 363 -5 6165 -10 6267 -1 11
-13 15 -44 16 -23 1 -116 5 -207 8 -149 6 -1329 14 -1334 9z"/>
</g>
</svg>
