<?xml version="1.0" standalone="no"?>
<!DOCTYPE svg PUBLIC "-//W3C//DTD SVG 20010904//EN"
 "http://www.w3.org/TR/2001/REC-SVG-20010904/DTD/svg10.dtd">
<svg version="1.0" xmlns="http://www.w3.org/2000/svg"
 width="700.000000pt" height="700.000000pt" viewBox="0 0 700.000000 700.000000"
 preserveAspectRatio="xMidYMid meet">
<metadata>
Created by potrace 1.14, written by Peter Selinger 2001-2017
</metadata>
<g transform="translate(0.000000,700.000000) scale(0.100000,-0.100000)"
fill="#000000" stroke="none">
<path d="M2986 6573 c-1 -2 -370 -3 -819 -3 l-817 0 -113 -29 c-198 -50 -321
-122 -465 -271 -130 -134 -199 -271 -243 -482 -18 -90 -19 -170 -19 -2278 0
-2315 -2 -2216 44 -2383 52 -190 181 -370 356 -499 93 -68 178 -108 306 -145
l99 -28 2235 0 c1229 0 2255 3 2280 7 297 44 571 244 702 512 44 88 63 146 86
261 18 86 19 181 17 2305 l-3 2215 -25 92 c-54 190 -128 321 -254 446 -176
177 -378 263 -643 274 -128 5 -2719 11 -2724 6z m2479 -807 c76 -28 158 -81
214 -139 46 -48 113 -161 128 -219 3 -12 7 -860 8 -1883 l3 -1860 -43 -91
c-81 -174 -232 -288 -401 -302 -44 -4 -887 -7 -1874 -7 l-1795 0 -60 25 c-156
62 -256 159 -319 308 l-26 62 2 1877 3 1878 38 77 c68 135 199 245 338 282 46
13 316 14 1894 13 1765 -2 1842 -3 1890 -21z"/>
<path d="M3915 5099 c-112 -25 -231 -90 -329 -180 -72 -66 -62 -65 -174 -13
-103 49 -166 63 -263 59 -163 -5 -306 -90 -435 -256 -139 -180 -195 -441 -135
-636 36 -121 179 -310 363 -482 32 -30 56 -57 53 -61 -2 -3 -23 -4 -46 -1 -39
6 -46 12 -92 79 -57 85 -81 100 -135 86 -31 -7 -44 -20 -81 -77 -24 -37 -45
-66 -47 -65 -1 2 -5 30 -9 63 -3 33 -8 71 -10 85 -2 14 -6 48 -9 75 -3 28 -8
61 -11 75 -2 14 -7 52 -10 85 -3 33 -8 76 -11 95 -7 55 -12 90 -20 155 -3 33
-8 67 -9 75 -2 9 -6 43 -10 75 -4 33 -8 71 -10 85 -2 14 -7 48 -10 75 -5 46
-15 123 -30 231 -3 23 -8 59 -10 80 -15 128 -28 147 -100 147 -70 0 -78 -13
-89 -138 -8 -80 -14 -178 -21 -305 -3 -58 -8 -130 -10 -160 -2 -30 -7 -104
-11 -165 -3 -60 -7 -132 -9 -160 -1 -27 -6 -108 -10 -180 -3 -71 -8 -148 -10
-170 -2 -22 -4 -68 -6 -102 -2 -69 -13 -85 -17 -25 -7 99 -23 128 -78 138 -53
10 -72 -3 -135 -97 l-60 -90 -50 43 c-102 88 -130 106 -165 102 -29 -3 -215
-92 -238 -115 -6 -5 -10 -39 -9 -75 0 -70 9 -84 51 -84 27 0 115 35 155 63 30
20 43 16 92 -29 11 -11 49 -43 83 -72 77 -63 122 -70 166 -26 l26 27 1 -29 c0
-16 2 -47 3 -69 2 -22 6 -80 10 -130 6 -86 9 -125 21 -295 3 -41 7 -102 10
-135 2 -33 7 -100 10 -150 3 -49 8 -106 10 -125 5 -49 17 -280 19 -367 1 -59
5 -77 22 -93 27 -28 105 -31 138 -7 20 15 19 11 30 252 4 77 8 169 11 205 2
36 7 108 10 160 3 52 8 127 10 165 7 101 14 226 20 335 5 93 9 147 20 320 3
47 7 121 10 165 2 44 7 127 11 185 4 58 7 116 6 130 -2 48 16 -13 23 -78 3
-33 7 -69 9 -79 4 -21 13 -87 21 -153 3 -25 8 -63 11 -85 2 -22 7 -58 10 -80
21 -162 24 -170 80 -186 62 -18 92 10 180 167 26 46 51 84 54 84 4 0 12 -10
19 -22 7 -13 25 -33 40 -45 26 -21 40 -22 222 -26 107 -1 201 -7 209 -12 16
-10 241 -186 250 -195 3 -3 51 -40 107 -83 123 -94 142 -97 173 -29 12 26 51
107 87 180 l64 132 72 1 c40 1 77 2 82 4 6 1 17 3 26 3 9 1 40 18 69 38 28 19
53 34 55 32 1 -2 37 -56 78 -120 42 -65 80 -118 84 -119 65 -8 87 -4 113 18
16 13 32 33 35 43 8 25 20 26 21 3 1 -16 7 -88 19 -233 1 -19 6 -78 10 -130 4
-52 8 -111 10 -130 4 -43 14 -167 20 -235 2 -27 6 -84 10 -125 9 -105 14 -173
21 -249 2 -36 7 -79 9 -96 2 -16 4 -45 4 -62 1 -54 76 -86 133 -57 37 19 42
41 54 244 3 63 8 140 9 170 2 30 6 105 10 165 3 61 8 142 10 180 2 39 7 115
10 170 3 55 8 134 10 175 2 41 7 125 10 185 4 61 8 139 11 175 2 36 7 117 10
180 3 63 8 135 9 160 2 25 4 67 4 94 1 27 3 47 5 45 5 -5 14 -59 21 -127 3
-26 7 -58 10 -72 2 -14 7 -43 9 -65 23 -182 48 -350 56 -369 9 -25 62 -49 96
-43 39 6 54 24 114 140 l62 117 30 -37 c16 -21 39 -43 51 -49 30 -16 312 -13
327 2 7 7 13 40 14 74 4 79 -6 90 -87 91 -167 3 -175 4 -196 31 -95 120 -122
141 -176 132 -37 -6 -50 -17 -77 -65 -24 -43 -33 -48 -35 -20 -1 10 -8 70 -17
132 -8 63 -18 137 -21 164 -3 28 -8 61 -10 75 -2 14 -6 45 -9 70 -9 73 -57
443 -61 470 -2 14 -6 45 -10 70 -40 313 -41 316 -79 334 -56 26 -120 1 -131
-52 -5 -26 -17 -212 -30 -462 -2 -47 -7 -128 -10 -180 -3 -52 -8 -129 -10
-170 -9 -157 -17 -296 -20 -335 -2 -22 -6 -110 -10 -195 -4 -85 -10 -161 -14
-168 -5 -8 -8 -1 -8 20 0 58 -14 192 -24 229 -10 41 -40 59 -99 59 -38 0 -41
-2 -79 -67 -21 -38 -49 -89 -62 -115 -13 -27 -26 -48 -29 -48 -3 0 -25 30 -48
68 -71 111 -84 124 -135 129 -43 5 -48 3 -107 -46 -107 -89 -94 -70 67 99 34
36 88 92 120 126 197 207 254 283 294 394 21 56 24 83 24 195 0 151 -5 181
-45 281 -45 113 -109 200 -212 289 -122 106 -321 158 -473 124z"/>
</g>
</svg>
